<?xml version="1.0" standalone="no"?>
<!DOCTYPE svg PUBLIC "-//W3C//DTD SVG 20010904//EN"
 "http://www.w3.org/TR/2001/REC-SVG-20010904/DTD/svg10.dtd">
<svg version="1.0" xmlns="http://www.w3.org/2000/svg"
 width="301.000000pt" height="118.000000pt" viewBox="0 0 301.000000 118.000000"
 preserveAspectRatio="xMidYMid meet">

<g transform="translate(0.000000,118.000000) scale(0.100000,-0.100000)"
fill="#000000" stroke="none">
<path d="M1787 610 c-7 -223 -15 -263 -58 -294 -48 -33 -149 -11 -163 36 -4
13 -12 121 -18 241 -9 159 -15 217 -24 217 -16 0 -21 -141 -13 -338 5 -120 9
-145 25 -163 40 -45 118 -60 195 -39 56 16 77 46 89 125 19 135 9 425 -15 425
-9 0 -14 -57 -18 -210z"/>
<path d="M2430 813 c-19 -1 -72 -6 -117 -9 -46 -3 -83 -10 -83 -15 0 -5 12 -9
28 -9 15 0 44 -3 64 -6 l38 -7 2 -241 3 -241 23 -3 c21 -3 22 -1 21 70 0 40
-6 149 -12 241 -7 93 -8 171 -4 174 4 3 34 4 65 3 77 -3 82 -2 82 15 0 17 -31
36 -57 33 -10 0 -34 -3 -53 -5z"/>
<path d="M1915 798 c-2 -7 -6 -127 -8 -265 -4 -205 -2 -255 9 -264 8 -6 20 -9
28 -6 11 4 13 24 9 94 l-6 89 89 -1 c106 0 132 14 165 89 40 93 10 222 -62
258 -38 20 -106 23 -159 8 -23 -7 -36 -7 -38 0 -5 14 -22 12 -27 -2z m182 -31
c46 -26 67 -67 71 -138 4 -64 3 -68 -29 -104 -39 -42 -94 -55 -151 -36 -34 11
-35 13 -42 79 -3 37 -6 93 -6 125 0 56 1 58 33 72 39 17 95 18 124 2z"/>
<path d="M2656 784 c-4 -14 -43 -127 -87 -251 -44 -124 -78 -233 -77 -242 2
-9 13 -16 28 -16 21 0 26 8 44 75 12 41 24 80 28 86 8 13 176 -2 194 -17 7 -6
22 -41 33 -80 14 -45 27 -69 37 -69 8 0 17 6 20 14 5 13 -42 163 -86 276 -12
30 -35 96 -51 146 -26 83 -40 104 -69 104 -4 0 -11 -12 -14 -26z m46 -95 c4
-19 21 -68 38 -109 53 -125 56 -118 -44 -116 -47 1 -88 5 -91 8 -4 3 10 54 29
112 20 58 36 115 36 126 0 34 24 18 32 -21z"/>
<path d="M83 735 c-2 -6 -2 -80 -1 -165 l3 -155 25 -2 c14 -1 18 1 9 3 -13 4
-17 18 -17 64 l0 60 472 3 471 2 -472 3 -473 2 0 50 0 50 55 0 c53 0 55 -1 56
-27 l1 -28 10 28 c9 25 14 27 64 27 52 0 54 -1 55 -27 l1 -28 11 28 c10 25 15
27 70 27 58 0 59 0 53 -25 -4 -14 -2 -25 3 -25 5 0 12 11 15 25 6 23 11 25 66
25 60 0 60 0 55 -27 l-5 -28 12 28 c11 25 17 27 64 27 40 0 56 -4 63 -17 10
-17 10 -17 11 0 0 14 10 17 61 17 60 0 61 0 55 -25 -4 -14 -2 -25 3 -25 5 0
12 11 15 25 6 24 10 25 72 25 66 0 66 0 60 -25 -4 -14 -4 -25 -1 -25 3 0 10
11 15 25 7 19 17 25 39 25 26 0 31 -6 51 -60 l22 -59 76 -3 c64 -3 77 -6 80
-20 3 -15 -4 -18 -44 -18 -26 0 -44 -3 -40 -8 4 -4 24 -7 44 -7 34 0 37 -2 40
-32 l3 -33 -71 0 c-65 0 -71 2 -80 24 -5 14 -22 28 -42 35 -30 10 -31 9 -13
-4 40 -29 45 -36 45 -64 0 -32 -27 -61 -56 -61 -60 1 -80 88 -27 119 10 6 12
11 6 11 -15 0 -53 -36 -53 -50 0 -6 -79 -10 -216 -10 l-216 0 -28 30 c-15 17
-33 30 -39 30 -5 0 1 -11 14 -25 28 -27 30 -37 14 -68 -23 -42 -57 -49 -89
-17 -26 26 -25 64 2 90 12 11 17 20 11 20 -7 0 -21 -12 -33 -27 -20 -25 -29
-29 -103 -34 l-82 -5 83 -2 c45 -1 82 -6 82 -12 0 -5 11 -21 25 -35 38 -37 77
-34 112 10 l28 35 211 0 212 0 26 -35 c39 -51 105 -45 126 11 9 23 13 24 107
25 54 1 90 3 81 6 -15 4 -17 23 -17 165 -1 89 -3 163 -4 164 -2 2 -281 4 -621
6 -422 2 -620 0 -623 -7z m1225 -37 l-3 -33 -600 0 -600 0 -3 33 -3 32 606 0
606 0 -3 -32z m2 -103 l0 -55 -70 0 -71 0 -19 43 c-31 67 -31 67 70 67 l90 0
0 -55z"/>
<path d="M148 483 c12 -2 30 -2 40 0 9 3 -1 5 -23 4 -22 0 -30 -2 -17 -4z"/>
</g>
</svg>
